<svg width="261" height="277" viewBox="0 0 261 277" fill="none" xmlns="http://www.w3.org/2000/svg">
<path d="M112.586 43.2902C135.509 43.2902 158.425 43.2635 181.347 43.2971C181.187 49.7302 181.614 56.3027 181.147 62.6419C167.271 62.729 153.382 62.6488 139.501 62.6755C139.528 71.2684 139.447 79.8538 139.541 88.4398C151.33 88.3932 163.112 88.4268 174.901 88.4268V107.471C163.099 107.484 151.303 107.471 139.501 107.477V150.942C130.527 150.942 121.56 150.948 112.586 150.935V43.2902Z" fill="white"/>
<path d="M92.773 217.201C97.5074 212.902 104.622 212.287 110.573 213.985C114.271 215.015 117.915 217.73 118.611 221.708C118.878 224.029 119.126 226.697 117.662 228.702C116.177 230.856 113.663 231.986 111.195 232.601C114.846 233.303 118.765 235.376 119.808 239.215C120.497 242.932 120.356 247.265 117.668 250.208C114.459 253.852 109.403 255.122 104.716 255.249C100.557 255.176 96.1165 254.487 92.7861 251.792C90.2121 249.799 88.9618 246.623 88.3062 243.534C91.4823 243.239 94.6783 243.474 97.8682 243.38C98.6177 248.068 104.816 249.419 108.259 246.804C110.293 245.119 110.199 242.023 109.584 239.702C107.811 236.078 103.118 236.513 99.7405 236.533C99.7337 234.24 99.7337 231.952 99.7405 229.666C102.035 229.612 104.448 229.953 106.615 229.004C109.163 227.787 109.303 224.156 108.119 221.949C105.377 218.679 98.9182 220.251 98.6438 224.798C95.441 224.811 92.2381 224.831 89.0352 224.778C89.5166 221.962 90.5797 219.133 92.773 217.201Z" fill="white"/>
<path d="M134.827 238.01C134.96 240.551 134.285 243.373 135.716 245.673C137.655 248.288 141.787 248.382 144.315 246.616C146.588 244.664 146.354 241.3 146.04 238.606C145.712 236.185 143.071 234.841 140.811 235.195C138.491 235.222 136.451 236.433 134.827 238.01ZM131.617 215.229C136.685 212.527 142.951 212.594 148.28 214.506C152.426 216.004 155.267 220.096 155.348 224.49C152.399 224.49 149.444 224.523 146.495 224.47C145.886 219.802 139.26 219.086 136.317 221.929C134.131 224.564 134.98 228.194 134.814 231.331C140.25 226.149 150.567 227.044 154.539 233.611C156.338 236.473 156.372 240.003 156.157 243.266C155.83 247.974 152.446 252.113 148.12 253.825C143.024 255.83 137.073 255.791 132.065 253.537C127.858 251.631 125.023 247.265 124.83 242.678C124.743 237.503 124.796 232.333 124.803 227.158C124.857 222.376 127.337 217.542 131.617 215.229Z" fill="white"/>
<path d="M175.075 220.685C172.707 221.474 171.704 224.109 171.637 226.416C171.537 231.117 171.63 235.824 171.59 240.531C171.577 242.799 171.938 245.473 173.938 246.884C176.679 248.543 181.26 248.034 182.376 244.624C183.473 240.926 182.771 237.007 182.965 233.21C182.777 229.74 183.573 225.994 181.996 222.745C180.725 220.298 177.468 219.809 175.075 220.685ZM172.654 213.624C177.656 212.681 183.232 213.035 187.585 215.898C191.451 218.499 193.075 223.346 193.001 227.847C192.928 232.775 193.123 237.717 192.901 242.645C192.594 247.479 189.618 252.207 184.964 253.899C179.381 255.998 172.687 255.824 167.505 252.722C163.573 250.348 161.614 245.72 161.574 241.254C161.54 237.001 161.587 232.742 161.554 228.482C161.52 225.005 162.149 221.327 164.349 218.532C166.361 215.911 169.458 214.293 172.654 213.624Z" fill="white"/>
<path d="M112.586 43.2903V150.935C121.56 150.948 130.527 150.942 139.501 150.942V107.477C151.303 107.471 163.099 107.484 174.9 107.471V88.4269C163.112 88.4269 151.33 88.3933 139.541 88.4399C139.447 79.8539 139.528 71.2685 139.501 62.6756C153.382 62.6489 167.271 62.7291 181.146 62.642C181.614 56.3028 181.187 49.7303 181.347 43.2972C158.424 43.2636 135.509 43.2903 112.586 43.2903ZM42.1875 2.18699e-05C44.0797 0.167351 45.9726 0.140603 47.8711 0.120698C106.508 0.120698 165.145 0.126918 223.788 0.120698C226.215 0.153666 228.683 -0.026735 231.077 0.534968C236.888 2.10624 241.208 7.85701 241.134 13.8821C241.154 23.6444 241.134 33.4005 241.141 43.1634C241.127 93.5886 241.161 144.007 241.127 194.433C174.754 194.507 108.387 194.372 42.0208 194.5C42.0139 145.191 42.0208 95.8889 42.0139 46.5871C42.7156 35.4738 42.2341 24.32 42.3747 13.186C42.3144 8.85975 42.542 4.52724 42.2012 0.207166L42.1875 2.18699e-05Z" fill="#FF6B00"/>
<path d="M36.1424 3.4643C38.1417 2.34774 39.9674 0.843028 42.2005 0.207925C42.542 4.52738 42.3143 8.86051 42.3747 13.1868C42.2341 24.3201 42.7155 35.4739 42.0133 46.5873C42.0201 95.889 42.0133 145.191 42.0201 194.5C35.6006 198.225 29.3019 202.17 22.9091 205.954C15.2929 210.575 7.64986 215.162 0.0205279 219.769C0.0267483 154.96 0.0671804 90.1519 0 25.3433C11.9699 17.9274 24.1059 10.7733 36.1424 3.4643Z" fill="#FF9447"/>
<path d="M172.654 213.624C169.458 214.292 166.362 215.911 164.349 218.532C162.149 221.327 161.521 225.005 161.554 228.482C161.588 232.741 161.541 237.001 161.575 241.253C161.614 245.72 163.573 250.348 167.506 252.721C172.688 255.824 179.381 255.998 184.965 253.898C189.618 252.206 192.595 247.479 192.902 242.644C193.123 237.716 192.929 232.774 193.002 227.846C193.075 223.346 191.451 218.499 187.586 215.897C183.233 213.035 177.656 212.681 172.654 213.624ZM131.617 215.229C127.337 217.542 124.857 222.376 124.803 227.158C124.796 232.333 124.744 237.503 124.83 242.678C125.024 247.265 127.859 251.632 132.065 253.537C137.074 255.791 143.025 255.831 148.121 253.825C152.447 252.113 155.83 247.974 156.157 243.266C156.372 240.003 156.339 236.472 154.54 233.61C150.568 227.044 140.25 226.148 134.814 231.331C134.981 228.194 134.131 224.563 136.318 221.929C139.26 219.086 145.887 219.802 146.495 224.47C149.444 224.523 152.4 224.49 155.349 224.49C155.268 220.096 152.426 216.004 148.28 214.506C142.951 212.594 136.686 212.527 131.617 215.229ZM92.7738 217.201C90.5805 219.133 89.5168 221.962 89.0353 224.777C92.2388 224.831 95.4417 224.81 98.6446 224.797C98.9183 220.25 105.378 218.679 108.12 221.949C109.303 224.155 109.163 227.786 106.615 229.004C104.449 229.953 102.035 229.612 99.7413 229.665C99.7344 231.952 99.7344 234.239 99.7413 236.533C103.118 236.513 107.812 236.078 109.584 239.702C110.2 242.022 110.293 245.119 108.26 246.804C104.817 249.418 98.6179 248.067 97.8689 243.38C94.6791 243.474 91.4831 243.239 88.3069 243.534C88.9619 246.623 90.2122 249.799 92.7869 251.791C96.1173 254.487 100.557 255.175 104.716 255.249C109.403 255.122 114.459 253.852 117.668 250.208C120.356 247.265 120.497 242.932 119.808 239.214C118.765 235.376 114.847 233.303 111.196 232.601C113.663 231.986 116.177 230.855 117.662 228.702C119.127 226.696 118.879 224.029 118.612 221.708C117.916 217.73 114.272 215.015 110.574 213.984C104.622 212.286 97.5075 212.901 92.7738 217.201ZM241.141 43.1633C247.533 43.1565 253.925 43.1434 260.325 43.1701C260.325 120.898 260.332 198.625 260.319 276.346C185.7 276.346 111.089 276.359 36.4704 276.339C29.1085 276.653 22.7357 269.839 22.8359 262.618C22.8496 243.734 22.7028 224.837 22.9099 205.954C29.302 202.169 35.6014 198.224 42.0209 194.5C108.387 194.372 174.754 194.506 241.127 194.432C241.161 144.007 241.127 93.5884 241.141 43.1633Z" fill="#923B00"/>
<ellipse cx="179.589" cy="234.04" rx="8" ry="13.7587" fill="#923B00"/>
<circle cx="142.781" cy="243.139" r="8" fill="#923B00"/>
</svg>
