<svg width="16" height="16" viewBox="0 0 16 16" fill="none" xmlns="http://www.w3.org/2000/svg">
<path fill-rule="evenodd" clip-rule="evenodd" d="M6.97162 2.31198C7.20172 2.31198 7.39642 2.36957 7.55571 2.48475C7.57608 2.49835 7.59515 2.51238 7.61292 2.52684C8.20532 2.34816 8.84166 2.25882 9.52193 2.25882C10.3715 2.25882 11.0839 2.38729 11.6592 2.64423C12.2344 2.90116 12.6592 3.25555 12.9335 3.70741C13.2167 4.15926 13.3583 4.6687 13.3583 5.23573C13.3583 5.73188 13.2389 6.21917 12.9999 6.6976C12.7698 7.16717 12.4202 7.58359 11.9512 7.94684C11.4822 8.31009 10.9114 8.58032 10.2388 8.75751C10.6636 8.87269 10.991 9.05875 11.2211 9.31569C11.4512 9.57262 11.6813 9.94916 11.9114 10.4453C12.1592 10.9769 12.4025 11.3667 12.6415 11.6148C12.8893 11.8629 13.1725 11.9869 13.4911 11.9869C13.7743 11.9869 14.0442 11.8939 14.3008 11.7078C14.5575 11.5129 14.8805 11.1851 15.2699 10.7244C15.3761 10.6004 15.4956 10.5383 15.6283 10.5383C15.7434 10.5383 15.8319 10.5915 15.8938 10.6978C15.9646 10.8041 16 10.9503 16 11.1364C16 11.4819 15.9159 11.7566 15.7478 11.9603C15.323 12.4742 14.8938 12.8729 14.4601 13.1564C14.0265 13.4311 13.5132 13.5684 12.9203 13.5684C12.345 13.5684 11.8539 13.4134 11.4468 13.1033C11.0485 12.7932 10.668 12.2616 10.3051 11.5085C10.0131 10.906 9.783 10.463 9.61485 10.1795C9.4467 9.88715 9.27856 9.67894 9.11041 9.5549C8.95112 9.43086 8.75199 9.35555 8.51305 9.32897C8.47765 9.51503 8.37588 10.0998 8.20773 11.0832C8.13693 11.5262 8.09268 11.7964 8.07498 11.8939C7.98648 12.4344 7.80949 12.8508 7.54399 13.1431C7.2785 13.4267 6.87583 13.5684 6.33599 13.5684C6.12971 13.5684 5.93146 13.5475 5.74124 13.5057C5.60446 13.5564 5.44378 13.5817 5.25918 13.5817C5.03794 13.5817 4.68837 13.5728 4.21048 13.5551C3.76799 13.5374 3.47594 13.5285 3.33435 13.5285C2.77681 13.5285 2.16617 13.5773 1.50243 13.6747C1.21039 13.719 1.00242 13.7412 0.878521 13.7412C0.683825 13.7412 0.520104 13.688 0.387356 13.5817C0.254609 13.4754 0.188235 13.3203 0.188235 13.1166C0.188235 12.7976 0.329832 12.5495 0.613027 12.3723C0.896221 12.1951 1.29446 12.1021 1.80775 12.0932L2.43167 12.08L2.47149 11.7876C2.68389 10.37 2.83876 9.36884 2.93611 8.78409L3.22815 7.04314C3.40515 6.0154 3.56444 4.95664 3.70604 3.86688L2.59096 3.88017C2.27237 3.88017 2.05112 3.83144 1.92723 3.73399C1.81218 3.62767 1.75465 3.48148 1.75465 3.29542C1.75465 2.69296 2.1883 2.36957 3.05558 2.32527C3.46267 2.30755 3.95826 2.29869 4.54235 2.29869L6.97162 2.31198ZM5.32711 6.27233C5.23361 6.48922 5.15216 6.71847 5.08275 6.96007L5.07334 7.01656L4.80028 8.72181C4.78867 8.9271 4.78285 9.13835 4.78285 9.35555C4.78285 9.92258 4.84037 10.4099 4.95542 10.8174C5.07047 11.225 5.21207 11.5306 5.38021 11.7344C5.54836 11.9382 5.70766 12.0401 5.8581 12.0401C5.97315 12.0401 6.06607 11.9825 6.13687 11.8673C6.21652 11.7521 6.27847 11.5661 6.32272 11.3091L6.68114 9.31569C6.38024 9.31569 6.17227 9.24481 6.05722 9.10305C5.95103 8.96129 5.89793 8.80182 5.89793 8.62462C5.89793 8.41198 5.9643 8.24364 6.09705 8.11961C6.23864 7.99557 6.39794 7.93355 6.57494 7.93355H6.90681C7.0484 7.06529 7.18115 6.31663 7.30505 5.68758C7.4201 5.11169 7.79179 4.82375 8.42013 4.82375C8.92457 4.82375 9.17679 5.04967 9.17679 5.50152C9.17679 5.59898 9.17236 5.67429 9.16351 5.72745L8.76527 7.93355C9.24316 7.90697 9.6768 7.79179 10.0662 7.58802C10.4644 7.38424 10.7786 7.10073 11.0087 6.73747C11.2476 6.37422 11.3671 5.96224 11.3671 5.50152C11.3671 4.94335 11.1768 4.50479 10.7963 4.18584C10.4158 3.86688 9.85822 3.70741 9.12369 3.70741C8.2564 3.70741 7.49532 3.92447 6.84043 4.35861C6.1944 4.78388 5.68996 5.42179 5.32711 6.27233Z" fill="url(#paint0_linear_123_5)"/>
<defs>
<linearGradient id="paint0_linear_123_5" x1="1.25" y1="2.5" x2="17" y2="16.75" gradientUnits="userSpaceOnUse">
<stop offset="0.208542" stop-color="#F07F3E"/>
<stop offset="0.501634" stop-color="#4A7B91"/>
<stop offset="1" stop-color="#61A5C2"/>
</linearGradient>
</defs>
</svg>
